<?xml version="1.0" standalone="no"?>
<!DOCTYPE svg PUBLIC "-//W3C//DTD SVG 20010904//EN"
 "http://www.w3.org/TR/2001/REC-SVG-20010904/DTD/svg10.dtd">
<svg version="1.0" xmlns="http://www.w3.org/2000/svg"
 width="1024.000000pt" height="1024.000000pt" viewBox="0 0 1024.000000 1024.000000"
 preserveAspectRatio="xMidYMid meet">

<g transform="translate(0.000000,1024.000000) scale(0.100000,-0.100000)"
fill="#000000" stroke="none">
<path d="M0 5120 l0 -5120 5120 0 5120 0 0 5120 0 5120 -5120 0 -5120 0 0
-5120z m5256 1955 c3 -19 15 -52 25 -72 23 -46 24 -116 2 -153 -9 -15 -33 -39
-55 -51 -21 -13 -48 -40 -59 -59 -20 -33 -176 -356 -511 -1060 -83 -173 -178
-371 -212 -440 l-61 -125 -5 -1010 -5 -1010 -157 -3 -158 -3 0 246 0 245 -245
0 -245 0 -2 -242 -3 -243 -370 0 c-350 0 -374 1 -437 21 -187 60 -324 183
-397 358 -122 293 7 638 291 778 120 60 173 67 541 72 180 2 329 1 331 -3 4
-6 -147 -287 -164 -304 -4 -5 -119 -11 -256 -14 -137 -2 -264 -9 -282 -15 -95
-29 -179 -142 -189 -256 -9 -97 16 -163 90 -237 79 -78 101 -84 335 -87 l182
-3 0 88 0 87 160 0 c88 0 160 4 160 8 0 4 -25 53 -55 107 -31 55 -58 110 -61
122 -4 15 8 47 36 100 42 77 126 232 254 472 36 69 64 126 62 128 -1 2 -189 0
-416 -3 l-413 -7 -19 -33 c-15 -25 -28 -35 -56 -39 -78 -12 -148 -28 -179 -41
-18 -7 -33 -9 -33 -3 0 8 153 261 360 594 48 77 156 253 240 390 166 272 213
348 497 805 105 168 209 338 232 379 41 73 62 129 44 118 -13 -8 -36 77 -28
105 18 59 40 90 82 115 37 21 52 24 91 20 33 -5 53 -2 66 8 36 27 48 19 41
-27 -4 -29 -1 -55 9 -80 27 -63 21 -102 -21 -143 -20 -19 -42 -35 -50 -35 -7
0 -16 -7 -19 -15 -4 -8 -9 -13 -13 -10 -9 5 -45 -54 -38 -61 2 -3 36 0 73 6
117 20 678 121 695 126 15 4 66 102 70 134 1 8 -3 28 -9 43 -16 39 -15 102 2
135 19 37 105 83 149 80 20 -1 45 5 58 15 34 23 37 21 45 -18z m85 -1650 c45
-15 129 -78 129 -95 0 -4 -22 -27 -49 -49 l-49 -42 -37 26 c-77 51 -139 56
-215 18 -42 -22 -60 -38 -77 -72 -54 -105 -4 -251 100 -290 63 -24 155 -5 205
42 l23 21 50 -50 51 -51 -42 -33 c-122 -97 -287 -105 -428 -22 -196 114 -203
424 -14 554 98 67 237 84 353 43z m718 -302 c78 -175 143 -322 144 -328 1 -6
-34 -11 -84 -13 l-87 -3 -28 71 -27 70 -142 0 -142 0 -22 -60 c-12 -32 -25
-62 -30 -64 -4 -3 -45 -8 -91 -12 l-82 -7 7 24 c4 13 18 44 30 69 12 25 66
144 119 265 53 121 105 239 116 263 l20 42 78 0 79 0 142 -317z m633 287 c133
-50 184 -191 118 -323 -13 -26 -26 -47 -29 -47 -3 -1 -19 -12 -35 -25 l-30
-24 67 -100 c37 -55 67 -102 67 -105 0 -3 -40 -6 -88 -6 l-88 0 -58 90 -58 90
-64 0 -64 0 0 -84 c0 -97 1 -96 -96 -96 l-64 0 0 331 0 332 183 -5 c154 -5
191 -9 239 -28z m763 -38 l0 -64 -166 1 c-188 2 -179 6 -179 -80 l0 -49 150 0
150 0 0 -65 0 -65 -150 0 -150 0 0 -70 0 -70 180 0 180 0 0 -65 0 -65 -260 0
-260 0 0 330 0 330 253 -2 252 -3 0 -63z m633 1 l3 -63 -171 0 -170 0 0 -65 0
-65 145 0 144 0 6 -33 c4 -19 5 -47 3 -63 l-3 -29 -147 -3 -146 -3 -4 -65 c-1
-36 -1 -68 1 -70 2 -2 82 -4 178 -4 l173 0 0 -65 0 -65 -260 0 -260 0 0 330 0
330 253 -2 252 -3 3 -62z m465 57 c109 -16 178 -62 211 -142 22 -51 20 -143
-3 -193 -17 -38 -65 -88 -93 -97 -8 -3 14 -41 60 -106 40 -55 72 -103 72 -106
0 -3 -40 -6 -90 -6 l-89 0 -61 90 -61 90 -59 0 -59 0 -3 -87 -3 -88 -82 -3
-83 -3 0 331 0 330 138 0 c75 0 168 -5 205 -10z m-3463 -975 l0 -125 140 0
140 0 0 125 0 125 85 0 85 0 -2 -322 -3 -323 -80 0 c-74 0 -80 1 -77 20 1 11
-1 71 -4 133 l-6 113 -137 -3 -136 -3 -3 -132 -3 -133 -79 0 -80 0 0 325 0
325 80 0 80 0 0 -125z m752 -87 c3 -237 10 -263 70 -294 41 -21 129 -15 159
12 43 38 49 71 49 289 l0 205 80 0 80 0 0 -208 c0 -231 -8 -279 -59 -349 -19
-26 -50 -51 -88 -69 -51 -26 -69 -29 -153 -29 -84 0 -102 3 -153 28 -64 32
-99 72 -128 147 -17 44 -19 77 -19 265 l0 215 79 0 80 0 3 -212z m1017 202
c19 -5 49 -20 67 -32 82 -56 87 -185 9 -247 l-26 -20 28 -14 c97 -51 117 -181
40 -257 -60 -60 -80 -64 -329 -68 l-228 -4 0 326 0 326 203 0 c111 0 217 -4
236 -10z m2831 -3790 c0 -5 -4 -10 -10 -10 -5 0 -10 5 -10 10 0 6 5 10 10 10
6 0 10 -4 10 -10z m10 -36 c0 -7 15 -32 33 -56 29 -39 32 -49 31 -105 -1 -53
1 -60 13 -48 8 8 24 21 35 30 12 8 18 18 14 22 -4 4 -11 1 -16 -7 -7 -11 -11
-11 -24 -1 -17 15 -22 51 -7 51 13 0 23 -17 14 -23 -5 -2 -2 -2 5 -1 7 2 27
-6 45 -17 17 -12 24 -19 15 -16 -12 4 -15 2 -11 -9 6 -17 15 -18 30 -3 7 7 13
7 17 1 3 -5 -14 -17 -37 -26 -24 -9 -58 -32 -77 -51 -18 -19 -38 -31 -43 -28
-6 4 -8 0 -4 -11 4 -10 1 -19 -8 -22 -7 -3 -16 -18 -20 -33 -4 -18 -12 -27
-25 -27 -11 0 -20 6 -20 12 0 7 -15 32 -33 56 -31 40 -32 47 -31 121 l1 77
-31 -23 c-17 -13 -38 -26 -46 -30 -11 -4 -10 -6 4 -6 11 -1 28 6 38 16 10 9
21 13 26 8 4 -4 1 -10 -6 -12 -10 -4 -10 -8 0 -20 11 -14 10 -15 -7 -10 -22 7
-54 -8 -42 -20 5 -4 12 -1 17 7 7 11 11 11 24 1 17 -15 22 -51 7 -51 -13 0
-23 17 -14 23 5 2 2 2 -5 1 -7 -2 -27 6 -45 17 -17 12 -24 19 -15 16 12 -4 15
-2 11 9 -6 17 -15 18 -30 3 -7 -7 -13 -7 -17 -1 -3 6 10 16 31 23 20 6 59 32
85 57 27 25 51 42 54 39 9 -9 -6 -28 -17 -22 -5 4 -9 2 -9 -2 0 -5 25 -9 55
-9 42 0 52 2 44 12 -7 8 -6 13 3 16 10 4 10 8 -1 21 -10 13 -17 15 -27 6 -17
-14 -19 2 -2 19 7 7 8 12 4 12 -10 0 -35 -31 -36 -43 0 -5 4 -5 10 -2 6 3 7
-1 4 -10 -6 -14 -8 -14 -19 2 -7 10 -10 20 -5 23 5 3 11 17 15 30 6 26 45 38
45 14z m-10 -74 c-6 -12 -14 -19 -17 -17 -2 3 1 15 7 27 6 12 14 19 17 17 2
-3 -1 -15 -7 -27z m0 -330 c0 -5 -4 -10 -10 -10 -5 0 -10 5 -10 10 0 6 5 10
10 10 6 0 10 -4 10 -10z"/>
<path d="M4459 6495 c-202 -34 -371 -65 -377 -69 -13 -8 -114 -197 -110 -206
3 -6 117 10 618 88 l175 27 58 113 58 112 -28 -1 c-15 0 -193 -29 -394 -64z"/>
<path d="M4270 6154 c-201 -29 -371 -57 -379 -62 -14 -8 -142 -234 -136 -241
2 -1 41 2 87 8 508 65 715 95 724 104 6 7 39 65 73 130 l62 117 -33 -1 c-18
-1 -197 -25 -398 -55z"/>
<path d="M4105 5784 c-192 -24 -368 -46 -390 -49 -39 -5 -41 -7 -112 -134 -40
-71 -73 -132 -73 -135 0 -3 21 -3 48 0 26 2 209 20 407 40 197 19 360 36 360
37 14 22 145 278 145 282 0 7 6 8 -385 -41z"/>
<path d="M4085 5399 c-49 -4 -211 -17 -358 -30 l-268 -23 -53 -90 c-29 -50
-67 -118 -85 -150 l-33 -59 69 6 c37 4 149 11 248 18 99 6 253 16 343 23 l163
11 80 153 80 152 -48 -1 c-26 -1 -88 -5 -138 -10z"/>
<path d="M3800 4964 c-19 -2 -136 -8 -260 -14 -124 -6 -248 -13 -277 -16 l-52
-6 -81 -149 c-44 -82 -80 -151 -80 -154 0 -3 26 -3 58 -1 31 3 215 8 409 12
l351 6 42 82 c23 44 62 118 87 164 l45 82 -104 -2 c-57 -1 -119 -3 -138 -4z"/>
<path d="M3920 4164 c-71 -147 -130 -269 -130 -270 0 -2 61 -4 135 -4 l135 0
0 270 c0 149 -2 270 -5 270 -2 0 -63 -120 -135 -266z"/>
<path d="M5792 5161 c-23 -59 -42 -111 -42 -114 0 -4 41 -7 91 -7 69 0 90 3
86 13 -31 76 -89 213 -91 214 -1 2 -21 -46 -44 -106z"/>
<path d="M6430 5195 l0 -105 74 0 c91 0 132 14 151 51 30 57 12 120 -42 148
-12 6 -58 11 -102 11 l-81 0 0 -105z"/>
<path d="M8376 5218 c-9 -127 -12 -123 78 -126 113 -4 166 28 166 103 0 74
-47 105 -158 105 l-79 0 -7 -82z"/>
<path d="M6585 4462 c-3 -3 -5 -36 -5 -74 l0 -68 96 0 c121 0 154 15 154 70
-1 36 -20 57 -67 69 -39 11 -168 12 -178 3z"/>
<path d="M6580 4130 l0 -80 113 0 c122 0 150 9 168 57 12 31 -10 75 -46 91
-15 7 -71 12 -130 12 l-105 0 0 -80z"/>
<path d="M9720 666 c0 -2 8 -10 18 -17 15 -13 16 -12 3 4 -13 16 -21 21 -21
13z"/>
<path d="M9788 525 c-39 -33 -35 -43 5 -13 17 14 39 27 47 31 11 4 9 6 -5 6
-11 0 -32 -11 -47 -24z"/>
<path d="M9634 448 c31 -42 34 -44 33 -25 -1 30 4 47 14 47 6 0 8 -8 4 -19 -3
-11 0 -23 7 -27 6 -4 14 -2 16 4 2 7 7 10 12 7 4 -3 7 3 6 13 0 9 5 16 12 15
6 -2 12 1 12 5 0 5 -25 9 -55 9 -44 0 -53 -3 -44 -14 16 -19 -1 -16 -25 5 -12
11 -9 3 8 -20z m74 2 c-7 -10 -14 -18 -15 -16 -6 6 9 36 18 36 5 0 4 -9 -3
-20z"/>
<path d="M9675 400 c-3 -5 -2 -10 4 -10 5 0 13 5 16 10 3 6 2 10 -4 10 -5 0
-13 -4 -16 -10z"/>
</g>
</svg>
